<svg xmlns="http://www.w3.org/2000/svg" width="25.311" height="19.696" viewBox="0 0 25.311 19.696">
  <path id="Path_442" data-name="Path 442" d="M153.625,193.508h-.889q-7.283,0-14.566,0a2.155,2.155,0,0,1-2.149-1.569,2.221,2.221,0,0,1,.849-2.6,2.834,2.834,0,0,1,1.4-.4c4.807-.029,9.615-.018,14.422-.018h.9c-.2-.241-.323-.4-.46-.544-.972-1.023-1.967-2.025-2.917-3.068a2.343,2.343,0,0,1,.085-3.351,2.15,2.15,0,0,1,3.181.245q3.479,3.622,6.937,7.265a2.287,2.287,0,0,1,.016,3.44q-3.452,3.648-6.919,7.282a2.155,2.155,0,0,1-3.177.3,2.343,2.343,0,0,1-.093-3.4c.92-1.005,1.88-1.974,2.821-2.961C153.228,193.967,153.374,193.791,153.625,193.508Z" transform="translate(-135.9 -181.365)" fill="#fff"/>
</svg>
